<?xml version="1.0" encoding="UTF-8"?>
<svg width="80px" height="80px" viewBox="0 0 80 80" version="1.1" xmlns="http://www.w3.org/2000/svg" xmlns:xlink="http://www.w3.org/1999/xlink">
    <!-- Generator: Sketch 52.6 (67491) - http://www.bohemiancoding.com/sketch -->
    <title>icon_exactly copy</title>
    <desc>Created with Sketch.</desc>
    <g id="Page-1" stroke="none" stroke-width="1" fill="none" fill-rule="evenodd">
        <g id="Page_Face-detection_Detail" transform="translate(-920.000000, -646.000000)">
            <g id="DAC-DIEM-NOI-BAT" transform="translate(0.000000, 500.000000)">
                <g id="Group-3" transform="translate(760.000000, 146.000000)">
                    <g id="icon_face-2-copy" transform="translate(160.000000, 0.000000)">
                        <circle id="Oval" fill="#27B9E8" fill-rule="evenodd" cx="40" cy="40" r="40"></circle>
                        <g id="face-copy-2" transform="translate(12.000000, 12.000000)">
                            <path d="M8.40205078,11.8475911 L8.39236654,19.1333333" id="Line-5" stroke="#02488E" stroke-width="0.5" opacity="0.5" stroke-linecap="square" stroke-dasharray="0,2"></path>
                            <path d="M46.6687174,19.3142578 L46.6590332,26.6" id="Line-5-Copy" stroke="#02488E" stroke-width="0.5" opacity="0.5" stroke-linecap="square" stroke-dasharray="0,2"></path>
                            <g id="Group-2" stroke-width="1" fill-rule="evenodd" transform="translate(6.533333, 28.933333)" fill="#FFFFFF">
                                <path d="M6.98383494,15.7320727 C6.54270335,15.4654121 6.40126666,14.8916332 6.66792726,14.4505016 C6.93458786,14.00937 7.5083668,13.8679333 7.9494984,14.1345939 C8.898205,14.7080797 9.82214607,14.9873372 10.7333333,14.9873372 C11.6445206,14.9873372 12.5684617,14.7080797 13.5171683,14.1345939 C13.9582999,13.8679333 14.5320788,14.00937 14.7987394,14.4505016 C15.0654,14.8916332 14.9239633,15.4654121 14.4828317,15.7320727 C13.2537606,16.4750367 11.9999238,16.8540039 10.7333333,16.8540039 C9.46674282,16.8540039 8.21290611,16.4750367 6.98383494,15.7320727 Z" id="Line-3" fill-opacity="0.7" fill-rule="nonzero"></path>
                                <path d="M-1.06379929e-05,6.53333333 L1.86665603,6.53333333 L1.86665603,16.8000065 C1.86665603,17.830938 2.70239116,18.6666732 3.73332314,18.6666732 L16.8000016,18.6666763 C17.8309331,18.6666754 18.6666675,17.8309396 18.6666667,16.8000087 L18.666656,7.78361905 L18.6666718,3.73331505 C18.6666704,2.70238352 17.8309341,1.86664953 16.8000086,1.86665093 L13.6526802,1.86666544 L13.6526716,-1.23048913e-06 L16.8,-1.5732904e-05 C18.8618631,-1.85497242e-05 20.5333356,1.67144943 20.5333384,3.7333125 L20.5333227,7.7836263 L20.5333333,16.8000065 C20.5333351,18.8618696 18.8618662,20.5333412 16.8000031,20.5333429 L3.7333227,20.5333398 C1.67145963,20.5333398 -1.06379929e-05,18.8618696 -1.06379929e-05,16.8000065 L-1.06379929e-05,6.53333333 Z M-1.06379929e-05,6.53333333 L1.86665603,6.53333333 L1.86665603,16.8000065 C1.86665603,17.830938 2.70239116,18.6666732 3.73332314,18.6666732 L16.8000016,18.6666763 C17.8309331,18.6666754 18.6666675,17.8309396 18.6666667,16.8000087 L18.666656,7.78361905 L18.6666718,3.73331505 C18.6666704,2.70238352 17.8309341,1.86664953 16.8000086,1.86665093 L13.6526802,1.86666544 L13.6526716,-1.23048913e-06 L16.8,-1.5732904e-05 C18.8618631,-1.85497242e-05 20.5333356,1.67144943 20.5333384,3.7333125 L20.5333227,7.7836263 L20.5333333,16.8000065 C20.5333351,18.8618696 18.8618662,20.5333412 16.8000031,20.5333429 L3.7333227,20.5333398 C1.67145963,20.5333398 -1.06379929e-05,18.8618696 -1.06379929e-05,16.8000065 L-1.06379929e-05,6.53333333 Z" id="Rectangle" fill-rule="nonzero" transform="translate(10.266664, 10.266664) scale(-1, 1) translate(-10.266664, -10.266664) "></path>
                                <path d="M6.06666667,7 C6.06666667,6.48453423 6.48453423,6.06666667 7,6.06666667 C7.51546577,6.06666667 7.93333333,6.48453423 7.93333333,7 L7.93333333,8.86666667 C7.93333333,9.38213243 7.51546577,9.8 7,9.8 C6.48453423,9.8 6.06666667,9.38213243 6.06666667,8.86666667 L6.06666667,7 Z" id="Line-7" fill-opacity="0.7" fill-rule="nonzero"></path>
                                <path d="M13.5333333,7 C13.5333333,6.48453423 13.9512009,6.06666667 14.4666667,6.06666667 C14.9821324,6.06666667 15.4,6.48453423 15.4,7 L15.4,8.86666667 C15.4,9.38213243 14.9821324,9.8 14.4666667,9.8 C13.9512009,9.8 13.5333333,9.38213243 13.5333333,8.86666667 L13.5333333,7 Z" id="Line-7-Copy" fill-opacity="0.7" fill-rule="nonzero"></path>
                                <path d="M11.5707978,10.5394854 C12.0254558,10.7335233 12.2442706,11.277953 12.0595343,11.7555033 C11.874798,12.2330536 11.3564665,12.4628858 10.9018084,12.2688479 C9.91605729,11.8481514 9.32513021,11.3016722 9.32513021,10.4585017 C9.32513021,9.67344058 9.85700622,9.08820543 10.7942671,8.52367698 C11.2199925,8.26725521 11.7630174,8.42187979 12.0071471,8.86904064 C12.2512769,9.3162015 12.1040645,9.88656791 11.6783391,10.1429897 C11.5214976,10.2374581 11.3919903,10.3258943 11.2905955,10.4056133 C11.368878,10.4481614 11.4624211,10.4932326 11.5707978,10.5394854 Z" id="Line-9" fill-opacity="0.7" fill-rule="nonzero"></path>
                            </g>
                            <g id="Group-2-Copy" stroke-width="1" fill-rule="evenodd" transform="translate(28.933333, 28.933333)" fill="#FFFFFF">
                                <path d="M6.98383494,15.7320727 C6.54270335,15.4654121 6.40126666,14.8916332 6.66792726,14.4505016 C6.93458786,14.00937 7.5083668,13.8679333 7.9494984,14.1345939 C8.898205,14.7080797 9.82214607,14.9873372 10.7333333,14.9873372 C11.6445206,14.9873372 12.5684617,14.7080797 13.5171683,14.1345939 C13.9582999,13.8679333 14.5320788,14.00937 14.7987394,14.4505016 C15.0654,14.8916332 14.9239633,15.4654121 14.4828317,15.7320727 C13.2537606,16.4750367 11.9999238,16.8540039 10.7333333,16.8540039 C9.46674282,16.8540039 8.21290611,16.4750367 6.98383494,15.7320727 Z" id="Line-3" fill-opacity="0.5" fill-rule="nonzero"></path>
                                <path d="M-3.99680289e-15,6.50849609 L1.86666667,6.50849609 L1.86666667,16.8 C1.86666667,17.8309315 2.7024018,18.6666667 3.73333333,18.6666667 L16.8000986,18.6666667 C17.8310301,18.6666667 18.6667653,17.8309315 18.6667653,16.8 L18.6667653,3.7333333 C18.6667653,2.70240176 17.8310301,1.86666663 16.8000986,1.86666664 L13.6806089,1.86666666 L13.6806089,-3.55113882e-09 L16.8000986,-3.0727286e-08 C18.8619617,-3.89039888e-08 20.5334319,1.67147022 20.533432,3.73333329 L20.5334319,16.8 C20.5334319,18.8618631 18.8619617,20.5333333 16.8000986,20.5333333 L3.73333333,20.5333333 C1.67147027,20.5333333 -1.67188118e-15,18.8618631 -1.92438658e-15,16.8 L-3.99680289e-15,6.50849609 Z M-3.99680289e-15,6.50849609 L1.86666667,6.50849609 L1.86666667,16.8 C1.86666667,17.8309315 2.7024018,18.6666667 3.73333333,18.6666667 L16.8000986,18.6666667 C17.8310301,18.6666667 18.6667653,17.8309315 18.6667653,16.8 L18.6667653,3.7333333 C18.6667653,2.70240176 17.8310301,1.86666663 16.8000986,1.86666664 L13.6806089,1.86666666 L13.6806089,-3.55113882e-09 L16.8000986,-3.0727286e-08 C18.8619617,-3.89039888e-08 20.5334319,1.67147022 20.533432,3.73333329 L20.5334319,16.8 C20.5334319,18.8618631 18.8619617,20.5333333 16.8000986,20.5333333 L3.73333333,20.5333333 C1.67147027,20.5333333 -1.67188118e-15,18.8618631 -1.92438658e-15,16.8 L-3.99680289e-15,6.50849609 Z" id="Rectangle" fill-rule="nonzero"></path>
                                <path d="M6.06666667,6.53333333 C6.06666667,6.01786757 6.48453423,5.6 7,5.6 C7.51546577,5.6 7.93333333,6.01786757 7.93333333,6.53333333 L7.93333333,7.46666667 C7.93333333,7.98213243 7.51546577,8.4 7,8.4 C6.48453423,8.4 6.06666667,7.98213243 6.06666667,7.46666667 L6.06666667,6.53333333 Z" id="Line-7" fill-opacity="0.5" fill-rule="nonzero"></path>
                                <path d="M9.8,7.93333333 C9.8,7.41786757 10.2178676,7 10.7333333,7 C11.2487991,7 11.6666667,7.41786757 11.6666667,7.93333333 L11.6666667,9.8 C11.6666667,10.3154658 11.2487991,10.7333333 10.7333333,10.7333333 C10.2178676,10.7333333 9.8,10.3154658 9.8,9.8 L9.8,7.93333333 Z" id="Line-7-Copy-2" fill-opacity="0.5" fill-rule="nonzero"></path>
                                <path d="M12.6,6.53333333 C12.6,6.01786757 13.0178676,5.6 13.5333333,5.6 C14.0487991,5.6 14.4666667,6.01786757 14.4666667,6.53333333 L14.4666667,7.46666667 C14.4666667,7.98213243 14.0487991,8.4 13.5333333,8.4 C13.0178676,8.4 12.6,7.98213243 12.6,7.46666667 L12.6,6.53333333 Z" id="Line-7-Copy" fill-opacity="0.5" fill-rule="nonzero"></path>
                            </g>
                            <g id="Group" stroke-width="1" fill-rule="evenodd" transform="translate(14.000000, 5.600000)">
                                <rect id="Rectangle" fill="#FFFFFF" x="0.933333333" y="0.933333333" width="26.1333333" height="25.2" rx="4"></rect>
                                <path d="M14.4666667,12.1333333 L14.4666667,16.3333333" id="Line-2" stroke="#27B9E8" stroke-width="2" stroke-linecap="round"></path>
                                <path d="M9.85525716,18.3702148 C11.4093696,19.8472331 12.9465061,20.5857422 14.4666667,20.5857422 C15.9868273,20.5857422 17.4813151,19.8472331 18.9501302,18.3702148" id="Line" stroke="#27B9E8" stroke-width="2" stroke-linecap="round"></path>
                                <ellipse id="Oval" stroke="#27B9E8" stroke-width="2" fill="#27B9E8" cx="8.4" cy="10.7333333" rx="1" ry="1.4"></ellipse>
                                <ellipse id="Oval-Copy" stroke="#27B9E8" stroke-width="2" fill="#27B9E8" cx="20.5333333" cy="10.7333333" rx="1" ry="1.4"></ellipse>
                                <path d="M4.41943359,0.647591146 L23.5527669,0.647591146 C25.4857636,0.647591146 27.0527669,2.21459452 27.0527669,4.14759115 L27.0527669,6.24759115 L0.919433594,6.24759115 L0.919433594,4.14759115 C0.919433594,2.21459452 2.48643697,0.647591146 4.41943359,0.647591146 Z" id="Rectangle" fill="#02488E"></path>
                            </g>
                            <path d="M5.70432694,37.8583453 C6.17523659,38.0679856 6.38703724,38.6196803 6.17739693,39.09059 C5.96775662,39.5614996 5.41606188,39.7733003 4.94515223,39.56366 C2.75270176,38.5876214 1.71240234,36.1651226 1.71240234,32.472526 C1.71240234,26.9152948 7.44357089,23.0473633 14.9333333,23.0473633 C19.6799526,23.0473633 22.874171,25.2727323 28.8473675,31.3602093 C29.1335761,31.6520212 29.3048079,31.8266273 29.4187558,31.9427117 C29.6377022,32.1657634 29.8161089,32.3470714 29.987418,32.5204777 C30.1125853,32.6470892 30.1125853,32.6470892 30.2376307,32.7731758 C33.6369908,36.1977759 37.4535931,38.7546033 40.3255737,39.1666202 C42.0619825,39.4157269 45.2606603,39.0160135 47.7225628,38.0164444 C50.9557304,36.7037302 52.7969076,34.5720557 52.7969076,31.5209635 C52.7969076,26.8918061 49.3503479,24.1518687 42.0664885,23.2647356 C41.5548039,23.2024153 41.1905222,22.7370924 41.2528425,22.2254078 C41.3151628,21.7137232 41.7804857,21.3494415 42.2921703,21.4117618 C50.4095263,22.40041 54.6635742,25.7822824 54.6635742,31.5209635 C54.6635742,35.4345459 52.2979317,38.1734349 48.4247842,39.7459905 C45.6582096,40.869261 42.1258676,41.3106697 40.060494,41.0143694 C36.6836444,40.5299236 32.5746056,37.7771863 28.912825,34.0882174 C28.7860807,33.9604177 28.7860807,33.9604177 28.6594797,33.8323558 C28.4865717,33.6573311 28.3068499,33.4746866 28.086621,33.2503285 C27.9722972,33.1338611 27.8006651,32.9588468 27.5149877,32.6675763 C21.8954078,26.9404813 18.9867089,24.9140299 14.9333333,24.9140299 C8.35472771,24.9140299 3.57906901,28.1370936 3.57906901,32.472526 C3.57906901,35.5077072 4.32477219,37.2441929 5.70432694,37.8583453 Z" id="Path-21" fill="#FFFFFF" fill-rule="nonzero"></path>
                            <g id="Group-3" opacity="0.650832403" stroke-width="1" fill-rule="evenodd" transform="translate(5.600000, 5.600000)" fill="#FFFFFF">
                                <path d="M2.56871745,0.898925781 C2.56871745,0.77005934 2.68064626,0.665592448 2.81871745,0.665592448 C2.95678864,0.665592448 3.06871745,0.77005934 3.06871745,0.898925781 L3.06871745,4.63225911 C3.06871745,4.76112556 2.95678864,4.86559245 2.81871745,4.86559245 C2.68064626,4.86559245 2.56871745,4.76112556 2.56871745,4.63225911 L2.56871745,0.898925781 Z" id="Line-10" fill-rule="nonzero"></path>
                                <path d="M0.92569987,3.04707031 C0.796833428,3.04707031 0.692366536,2.9351415 0.692366536,2.79707031 C0.692366536,2.65899913 0.796833428,2.54707031 0.92569987,2.54707031 L4.6590332,2.54707031 C4.78789964,2.54707031 4.89236654,2.65899913 4.89236654,2.79707031 C4.89236654,2.9351415 4.78789964,3.04707031 4.6590332,3.04707031 L0.92569987,3.04707031 Z" id="Line-4" fill-rule="nonzero"></path>
                            </g>
                            <g id="Group-3-Copy" opacity="0.650832403" stroke-width="1" fill-rule="evenodd" transform="translate(43.866667, 14.000000)" fill="#FFFFFF">
                                <path d="M2.56871745,0.898925781 C2.56871745,0.77005934 2.68064626,0.665592448 2.81871745,0.665592448 C2.95678864,0.665592448 3.06871745,0.77005934 3.06871745,0.898925781 L3.06871745,4.63225911 C3.06871745,4.76112556 2.95678864,4.86559245 2.81871745,4.86559245 C2.68064626,4.86559245 2.56871745,4.76112556 2.56871745,4.63225911 L2.56871745,0.898925781 Z" id="Line-10" fill-rule="nonzero"></path>
                                <path d="M0.92569987,3.04707031 C0.796833428,3.04707031 0.692366536,2.9351415 0.692366536,2.79707031 C0.692366536,2.65899913 0.796833428,2.54707031 0.92569987,2.54707031 L4.6590332,2.54707031 C4.78789964,2.54707031 4.89236654,2.65899913 4.89236654,2.79707031 C4.89236654,2.9351415 4.78789964,3.04707031 4.6590332,3.04707031 L0.92569987,3.04707031 Z" id="Line-4" fill-rule="nonzero"></path>
                            </g>
                        </g>
                    </g>
                </g>
            </g>
        </g>
    </g>
</svg>