<?xml version="1.0" encoding="UTF-8"?>
<svg width="80px" height="80px" viewBox="0 0 80 80" version="1.1" xmlns="http://www.w3.org/2000/svg" xmlns:xlink="http://www.w3.org/1999/xlink">
    <!-- Generator: Sketch 52.6 (67491) - http://www.bohemiancoding.com/sketch -->
    <title>icon_exactly copy 2</title>
    <desc>Created with Sketch.</desc>
    <g id="Page-1" stroke="none" stroke-width="1" fill="none" fill-rule="evenodd">
        <g id="Page_Face-detection_Detail" transform="translate(-1340.000000, -646.000000)">
            <g id="DAC-DIEM-NOI-BAT" transform="translate(0.000000, 500.000000)">
                <g id="Group-6" transform="translate(1180.000000, 146.000000)">
                    <g id="icon_quality" transform="translate(160.000000, 0.000000)">
                        <circle id="Oval" fill="#27B9E8" cx="40" cy="40" r="40"></circle>
                        <path d="M39.5178596,42.5822431 C34.7895255,42.5822431 30.9564533,38.7491709 30.9564533,34.0208368 C30.9564533,29.2925026 34.7895255,25.4594304 39.5178596,25.4594304 C44.2461938,25.4594304 48.079266,29.2925026 48.079266,34.0208368 C48.079266,38.7491709 44.2461938,42.5822431 39.5178596,42.5822431 Z M59.6569538,33.2626003 L58.5529282,34.7040828 C57.814495,35.6597411 57.6310831,36.9325569 58.0696566,38.0578211 L58.7237397,39.7242749 C59.0615496,40.5907384 59.0342835,41.557038 58.648152,42.4030741 C58.2620205,43.2491102 57.5499026,43.9028429 56.6740015,44.2153679 L54.9783848,44.8194574 C53.8396302,45.2243215 52.9967354,46.1968924 52.7578351,47.3816301 L52.4037136,49.1480711 C52.382883,49.2480583 52.3578862,49.3397133 52.3287232,49.4355344 L56.7614903,63.0337974 L49.8957007,60.884072 L45.6212467,66.6666667 L41.5134381,54.0599437 C40.241986,54.9663083 38.5196494,54.9030248 37.3181406,53.9057967 L33.4144726,66.6666667 L29.1400186,60.884072 L22.274229,63.0337974 L26.6028427,48.9647612 L26.2778842,47.3816301 C26.0389839,46.1968924 25.1960891,45.2243215 24.0573345,44.8194574 L22.3617178,44.2153679 C21.4858167,43.9028429 20.7736988,43.2491102 20.3875673,42.4030741 C20.0014358,41.557038 19.9741697,40.5907384 20.3119796,39.7242749 L20.9660627,38.0578211 C21.4046362,36.9325569 21.2212243,35.6597411 20.4827911,34.7040828 L19.3829316,33.2792648 C18.8148978,32.5427252 18.5692117,31.6076105 18.7018515,30.6869804 C18.8344913,29.7663503 19.3341589,28.9386224 20.0870084,28.3923891 L21.5451554,27.3341909 C22.5231543,26.6249631 23.0576199,25.4548315 22.9533089,24.2512514 L22.7991619,22.4556474 C22.7140469,21.5260343 23.0102504,20.6017294 23.6198327,19.8947396 C24.229415,19.1877498 25.1000649,18.7587453 26.0320823,18.7061264 L27.8318524,18.6061391 C29.0375836,18.5374722 30.119076,17.8417753 30.6814884,16.77304 L31.5147153,15.1774104 C31.9483779,14.3535117 32.6973819,13.7404965 33.5907584,13.4782929 C34.484135,13.2160892 35.4456319,13.3270768 36.2557763,13.7859215 L37.8222429,14.6733082 C38.8741849,15.2689671 40.1615344,15.2689671 41.2134764,14.6733082 L42.779943,13.7859215 C43.5884084,13.3244597 44.5493381,13.210221 45.4434608,13.4692732 C46.3375835,13.7283255 47.0886114,14.3385659 47.5251701,15.1607459 L48.358397,16.7563754 C48.9208094,17.8251108 50.0023018,18.5208076 51.208033,18.5894746 L53.0078031,18.6894618 C53.9398205,18.7420808 54.8104704,19.1710853 55.4200527,19.8780751 C56.029635,20.5850649 56.3258386,21.5093697 56.2407235,22.4389829 L56.0865765,24.2345868 C55.9822656,25.438167 56.5167311,26.6082986 57.49473,27.3175264 L58.9528771,28.3757245 C59.7057265,28.9219578 60.2053941,29.7496857 60.3380339,30.6703158 C60.4706737,31.5909459 60.2249877,32.5260607 59.6569538,33.2626003 Z M27.6235457,34.0208368 C27.6304345,40.5870294 32.951667,45.9082619 39.5178596,45.9151507 C46.0869079,45.9151507 51.4121736,40.589885 51.4121736,34.0208368 C51.4121736,27.4517885 46.0869079,22.1265228 39.5178596,22.1265228 C32.9488114,22.1265228 27.6235457,27.4517885 27.6235457,34.0208368 Z" id="Combined-Shape" fill="#FFFFFF"></path>
                    </g>
                </g>
            </g>
        </g>
    </g>
</svg>