<?xml version="1.0" encoding="UTF-8"?>
<svg width="80px" height="80px" viewBox="0 0 80 80" version="1.1" xmlns="http://www.w3.org/2000/svg" xmlns:xlink="http://www.w3.org/1999/xlink">
    <!-- Generator: Sketch 52.6 (67491) - http://www.bohemiancoding.com/sketch -->
    <title>icon_exactly</title>
    <desc>Created with Sketch.</desc>
    <g id="Page-1" stroke="none" stroke-width="1" fill="none" fill-rule="evenodd">
        <g id="Page_Face-detection_Detail" transform="translate(-500.000000, -646.000000)">
            <g id="DAC-DIEM-NOI-BAT" transform="translate(0.000000, 500.000000)">
                <g id="Chinh-xac" transform="translate(340.000000, 146.000000)">
                    <g id="icon_exactly" transform="translate(160.000000, 0.000000)">
                        <circle id="Oval" fill="#27B9E8" cx="40" cy="40" r="40"></circle>
                        <g id="Group" stroke-width="1" transform="translate(12.000000, 10.666667)" stroke="#FFFFFF">
                            <circle id="Oval" stroke-width="3" cx="27.3333333" cy="28.6666667" r="3.16666667"></circle>
                            <circle id="Oval-Copy" stroke-width="3" cx="28" cy="29.3333333" r="17.1666667"></circle>
                            <circle id="Oval-Copy-2" stroke-width="3" cx="28" cy="29.3333333" r="26.5"></circle>
                            <path d="M27.7089053,24.3419959 L40.0292437,11.8684916 L39.8348705,8.54858611 L50.3323912,-1.88890209 L52.0530872,3.89632383 L57.9279219,5.456582 L47.3101145,16.1521741 L44.0352895,15.9321836 L31.8018449,28.0461238 C31.8408371,28.283742 31.8606268,28.5255381 31.8606268,28.7696655 C31.8606268,31.2193921 29.8775007,33.2059978 27.4303134,33.2059978 C24.983126,33.2059978 23,31.2193921 23,28.7696655 C23,26.319939 24.983126,24.3333333 27.4303134,24.3333333 C27.523522,24.3333333 27.6164196,24.3362297 27.7089053,24.3419959 Z" id="Combined-Shape" stroke-width="2" fill="#27B9E8"></path>
                        </g>
                    </g>
                </g>
            </g>
        </g>
    </g>
</svg>