<?xml version="1.0" encoding="UTF-8"?>
<svg width="84px" height="84px" viewBox="0 0 84 84" version="1.1" xmlns="http://www.w3.org/2000/svg" xmlns:xlink="http://www.w3.org/1999/xlink">
    <!-- Generator: Sketch 52.6 (67491) - http://www.bohemiancoding.com/sketch -->
    <title>icon_vision</title>
    <desc>Created with Sketch.</desc>
    <g id="Page-1" stroke="none" stroke-width="1" fill="none" fill-rule="evenodd">
        <g id="Home-Page" transform="translate(-498.000000, -654.000000)">
            <g id="LINH-VUC-NGHIEN-CUU" transform="translate(0.000000, 500.000000)">
                <g id="Thi-giac-may-tinh" transform="translate(330.000000, 146.000000)">
                    <g id="icon_vision" transform="translate(160.000000, 0.000000)">
                        <g id="Group-2" transform="translate(8.333333, 8.333333)">
                            <g id="Group-3">
                                <ellipse id="Oval" fill-opacity="0.2" fill="#00ACD4" cx="41.6666667" cy="78.3333333" rx="41.6666667" ry="5"></ellipse>
                                <path d="M11.6666667,3.33333333 L11.6666667,41.6666667 L71.6666667,41.6666667 L71.6666667,3.33333333 L11.6666667,3.33333333 Z M11.6666667,0 L71.6666667,0 C73.5076158,0 75,1.6117749 75,3.6 L75,41.4 C75,43.3882251 73.5076158,45 71.6666667,45 L11.6666667,45 C9.8257175,45 8.33333333,43.3882251 8.33333333,41.4 L8.33333333,3.6 C8.33333333,1.6117749 9.8257175,0 11.6666667,0 Z" id="Rectangle" fill="#00ACD4" fill-rule="nonzero"></path>
                                <path d="M31.6666667,46.6666667 L51.6666667,46.6666667 L51.6666667,56.6666667 L31.6666667,56.6666667 L31.6666667,46.6666667 Z M12.6666667,56.6666667 L70.6666667,56.6666667 C71.2189514,56.6666667 71.6666667,57.1143819 71.6666667,57.6666667 L71.6666667,65.6666667 C71.6666667,66.2189514 71.2189514,66.6666667 70.6666667,66.6666667 L12.6666667,66.6666667 C12.1143819,66.6666667 11.6666667,66.2189514 11.6666667,65.6666667 L11.6666667,57.6666667 C11.6666667,57.1143819 12.1143819,56.6666667 12.6666667,56.6666667 Z" id="Combined-Shape" fill="#00ACD4"></path>
                                <g id="Group" transform="translate(23.333333, 13.333333)">
                                    <path d="M0,9.75925728 C5.59678819,4.26301415 12.2634549,1.51489258 20,1.51489258 C27.7365451,1.51489258 34.4032118,4.26301415 40,9.75925728 C34.4159614,15.4595745 27.7492947,18.3097331 20,18.3097331 C12.2507053,18.3097331 5.58403863,15.4595745 0,9.75925728 Z" id="Path-49" fill="#00ACD4"></path>
                                    <g id="Group-4" transform="translate(13.333333, 3.333333)">
                                        <circle id="Oval" fill="#FFFFFF" cx="6.66666667" cy="6.66666667" r="6.66666667"></circle>
                                        <circle id="Oval" fill="#00ACD4" cx="6.66666667" cy="6.66666667" r="3.33333333"></circle>
                                    </g>
                                </g>
                            </g>
                            <g id="Group-5-Copy" transform="translate(40.833333, 21.666667) scale(-1, -1) translate(-40.833333, -21.666667) translate(13.333333, 5.000000)" fill="#00ACD4" fill-rule="nonzero">
                                <path d="M53.3333306,0.831187539 C53.4034849,0.953283393 53.4436035,1.09483233 53.4436035,1.24575147 L53.4436035,8.52214738 C53.4436035,8.98238468 53.0705075,9.35548072 52.6102702,9.35548072 C52.1500329,9.35548072 51.7769368,8.98238468 51.7769368,8.52214738 L51.7769368,1.66666667 L42.5,1.66666667 C42.0397627,1.66666667 41.6666667,1.29357062 41.6666667,0.833333333 C41.6666667,0.373096042 42.0397627,0 42.5,0 L52.5,0 C52.9595218,0 53.3321731,0.371936928 53.3333306,0.831187539 Z" id="Combined-Shape"></path>
                                <path d="M11.8298313,23.181448 C11.8999856,23.3035438 11.9401042,23.4450928 11.9401042,23.5960119 L11.9401042,30.8724078 C11.9401042,31.3326451 11.5670081,31.7057411 11.1067708,31.7057411 C10.6465335,31.7057411 10.2734375,31.3326451 10.2734375,30.8724078 L10.2734375,24.0169271 L0.996500651,24.0169271 C0.53626336,24.0169271 0.163167318,23.643831 0.163167318,23.1835938 C0.163167318,22.7233565 0.53626336,22.3502604 0.996500651,22.3502604 L10.9965007,22.3502604 C11.4560225,22.3502604 11.8286738,22.7221973 11.8298313,23.181448 Z" id="Combined-Shape-Copy" transform="translate(6.051636, 27.028001) scale(-1, -1) translate(-6.051636, -27.028001) "></path>
                            </g>
                        </g>
                    </g>
                </g>
            </g>
        </g>
    </g>
</svg>