<?xml version="1.0" encoding="UTF-8"?>
<svg width="84px" height="91px" viewBox="0 0 84 91" version="1.1" xmlns="http://www.w3.org/2000/svg" xmlns:xlink="http://www.w3.org/1999/xlink">
    <!-- Generator: Sketch 52.6 (67491) - http://www.bohemiancoding.com/sketch -->
    <title>icon_verify</title>
    <desc>Created with Sketch.</desc>
    <g id="Page-1" stroke="none" stroke-width="1" fill="none" fill-rule="evenodd">
        <g id="Home-Page" transform="translate(-1338.000000, -647.000000)">
            <g id="LINH-VUC-NGHIEN-CUU" transform="translate(0.000000, 500.000000)">
                <g id="Xac-nhan-nguoi-dung" transform="translate(1170.000000, 146.000000)">
                    <g id="icon_verify" transform="translate(160.000000, 0.000000)">
                        <ellipse id="Oval" fill-opacity="0.2" fill="#00ACD4" cx="50" cy="86.6666667" rx="41.6666667" ry="5"></ellipse>
                        <g id="Group-2" stroke-width="1" transform="translate(8.333333, 8.333333)" fill="#00ACD4">
                            <path d="M6.25,5.859375 L6.25,56.640625 L77.0833333,56.640625 L77.0833333,5.859375 L6.25,5.859375 Z M4.16666667,0 L79.1666667,0 C81.4678531,-3.96301026e-16 83.3333333,1.7488877 83.3333333,3.90625 L83.3333333,58.59375 C83.3333333,60.7511123 81.4678531,62.5 79.1666667,62.5 L4.16666667,62.5 C1.86548021,62.5 2.81814063e-16,60.7511123 0,58.59375 L0,3.90625 C-2.81814063e-16,1.7488877 1.86548021,3.96301026e-16 4.16666667,0 Z M25,34.057971 C20.1975239,34.057971 16.3043478,30.1647949 16.3043478,25.3623188 C16.3043478,20.5598428 20.1975239,16.6666667 25,16.6666667 C29.8024761,16.6666667 33.6956522,20.5598428 33.6956522,25.3623188 C33.6956522,30.1647949 29.8024761,34.057971 25,34.057971 Z M24.5446247,46.7652252 C16.8771937,46.7652252 12.8623188,46.7652252 12.5,46.7652252 C12.6058119,42.7586652 14.0590502,34.5536826 24.7282609,34.5536826 C35.3974716,34.5536826 37.2160538,42.7586652 37.2160538,46.7652252 C34.6853063,46.7652252 30.4614965,46.7652252 24.5446247,46.7652252 Z M50,26.0416667 C48.8494068,26.0416667 47.9166667,25.1089266 47.9166667,23.9583333 C47.9166667,22.8077401 48.8494068,21.875 50,21.875 L70.8333333,21.875 C71.9839266,21.875 72.9166667,22.8077401 72.9166667,23.9583333 C72.9166667,25.1089266 71.9839266,26.0416667 70.8333333,26.0416667 L50,26.0416667 Z M50,34.375 C48.8494068,34.375 47.9166667,33.4422599 47.9166667,32.2916667 C47.9166667,31.1410734 48.8494068,30.2083333 50,30.2083333 L70.8333333,30.2083333 C71.9839266,30.2083333 72.9166667,31.1410734 72.9166667,32.2916667 C72.9166667,33.4422599 71.9839266,34.375 70.8333333,34.375 L50,34.375 Z M50,42.7083333 C48.8494068,42.7083333 47.9166667,41.7755932 47.9166667,40.625 C47.9166667,39.4744068 48.8494068,38.5416667 50,38.5416667 L70.8333333,38.5416667 C71.9839266,38.5416667 72.9166667,39.4744068 72.9166667,40.625 C72.9166667,41.7755932 71.9839266,42.7083333 70.8333333,42.7083333 L50,42.7083333 Z" id="Combined-Shape" fill-rule="nonzero"></path>
                        </g>
                        <g id="verify_success1" stroke-width="1" transform="translate(38.333333, 1.666667)">
                            <path d="M1.1443526e-15,4.65388407 C7.49434738,4.96818146 11.6138763,0 11.6138763,0 C11.6138763,0 15.7334053,4.96818146 23.2277526,4.65388407 L23.2277526,9.59748361 C23.2277526,17.3952196 18.6504028,24.430916 11.6138763,27.4509804 C4.57734982,24.4300381 0,17.3952196 0,9.59748361 L1.1443526e-15,4.65388407 Z" id="Path" fill="#00ACD4" fill-rule="nonzero"></path>
                            <path d="M8.57142857,13.5545779 C8.14947052,13.1232985 7.4137488,13.1232985 6.9928727,13.5545779 C6.55793132,14.0002332 6.55793132,14.7234554 6.9928727,15.1680049 L10.1478206,18.3926473 C10.5697786,18.8228208 11.3044184,18.8228208 11.7263764,18.3926473 L19.673253,10.269114 C19.884232,10.0534744 20,9.76706065 20,9.46295343 C20,9.15884621 19.884232,8.8724325 19.673253,8.65679283 C19.251295,8.2255135 18.5177371,8.2255135 18.0946971,8.65679283 L10.9365575,15.9741655 L8.57142857,13.5556837 L8.57142857,13.5545779 Z" id="Path" fill="#FFFFFF" fill-rule="nonzero"></path>
                        </g>
                    </g>
                </g>
            </g>
        </g>
    </g>
</svg>